<svg width="138" height="39" viewBox="0 0 138 39" fill="none" xmlns="http://www.w3.org/2000/svg">
<rect x="0.5" y="0.5" width="137" height="38" rx="6" fill="#E02E2B"/>
<g clip-path="url(#clip0_70_830)">
<path d="M48.4463 14.5469V24.5H46.3955V14.5469H48.4463ZM54.3115 14.5469L50.4971 20.3916H47.9883L47.7285 18.5664H49.4033L51.8232 14.5469H54.3115ZM52.1992 24.5L49.4102 20.0498L50.832 18.5869L54.6328 24.5H52.1992ZM57.2373 23.666L59.1992 17.1035H61.3115L58.3379 25.6143C58.2741 25.8011 58.1875 26.0016 58.0781 26.2158C57.9733 26.43 57.8298 26.6328 57.6475 26.8242C57.4697 27.0202 57.2441 27.1797 56.9707 27.3027C56.7018 27.4258 56.3714 27.4873 55.9795 27.4873C55.7926 27.4873 55.64 27.4759 55.5215 27.4531C55.403 27.4303 55.2617 27.3984 55.0977 27.3574V25.915C55.1478 25.915 55.2002 25.915 55.2549 25.915C55.3096 25.9196 55.362 25.9219 55.4121 25.9219C55.6719 25.9219 55.8838 25.8923 56.0479 25.833C56.2119 25.7738 56.3441 25.6826 56.4443 25.5596C56.5446 25.4411 56.6243 25.2861 56.6836 25.0947L57.2373 23.666ZM56.417 17.1035L58.0234 22.4629L58.3037 24.5479L56.9639 24.6914L54.3047 17.1035H56.417ZM67.0742 17.1035V18.6484H63.4922V17.1035H67.0742ZM64.0596 17.1035V24.5H62.0908V17.1035H64.0596ZM68.5098 17.1035V24.5H66.5342V17.1035H68.5098ZM71.9893 21.752L74.4707 17.1035H76.4395V24.5H74.4707V19.8447L71.9893 24.5H70.0205V17.1035H71.9893V21.752ZM81.7236 17.1035V24.5H79.748V17.1035H81.7236ZM84.1025 17.1035V18.6279H77.4033V17.1035H84.1025ZM86.4678 19.2979H88.6143C89.2887 19.2979 89.863 19.4095 90.3369 19.6328C90.8154 19.8516 91.18 20.1569 91.4307 20.5488C91.6859 20.9408 91.8135 21.3942 91.8135 21.9092C91.8135 22.2829 91.7406 22.6292 91.5947 22.9482C91.4535 23.2627 91.2461 23.5361 90.9727 23.7686C90.6992 24.001 90.3643 24.181 89.9678 24.3086C89.5713 24.4362 89.1201 24.5 88.6143 24.5H85.2373V17.1035H87.2129V22.9688H88.6143C88.9105 22.9688 89.1475 22.9209 89.3252 22.8252C89.5075 22.7249 89.6396 22.5951 89.7217 22.4355C89.8083 22.276 89.8516 22.1029 89.8516 21.916C89.8516 21.7201 89.8083 21.5423 89.7217 21.3828C89.6396 21.2188 89.5075 21.0866 89.3252 20.9863C89.1475 20.8861 88.9105 20.8359 88.6143 20.8359H86.4678V19.2979Z" fill="white"/>
</g>
<defs>
<clipPath id="clip0_70_830">
<rect width="47" height="20" fill="white" transform="translate(45.5 9.5)"/>
</clipPath>
</defs>
</svg>
