<svg width="64" height="31" viewBox="0 0 64 31" fill="none" xmlns="http://www.w3.org/2000/svg">
<path d="M0.5 6.5C0.5 3.46243 2.96243 1 6 1H63.5V24.5C63.5 27.5376 61.0376 30 58 30H0.5V6.5Z" stroke="#E02E2B"/>
<path d="M17.3716 18.45H11.8276V16.272H17.3716V18.45ZM27.2857 22.5H19.4917V20.394L24.2797 14.832C24.7237 14.304 24.9457 13.788 24.9457 13.284C24.9457 12.804 24.8077 12.42 24.5317 12.132C24.2677 11.832 23.8897 11.682 23.3977 11.682C22.9537 11.682 22.5817 11.814 22.2817 12.078C21.9817 12.33 21.8317 12.744 21.8317 13.32H19.4917C19.4917 12.18 19.8577 11.274 20.5897 10.602C21.3337 9.918 22.2697 9.576 23.3977 9.576C24.5497 9.576 25.4857 9.912 26.2057 10.584C26.9257 11.256 27.2857 12.162 27.2857 13.302C27.2857 13.878 27.1837 14.364 26.9797 14.76C26.7757 15.156 26.4217 15.648 25.9177 16.236L22.3357 20.394H27.2857V22.5ZM36.9871 18.792C36.9871 19.968 36.6091 20.898 35.8531 21.582C35.1091 22.266 34.1911 22.608 33.0991 22.608C32.0071 22.608 31.0831 22.266 30.3271 21.582C29.5711 20.898 29.1931 19.968 29.1931 18.792V13.392C29.1931 12.216 29.5711 11.286 30.3271 10.602C31.0831 9.918 32.0071 9.576 33.0991 9.576C34.1911 9.576 35.1091 9.918 35.8531 10.602C36.6091 11.286 36.9871 12.216 36.9871 13.392V18.792ZM34.6471 18.774V13.428C34.6471 12.888 34.5031 12.462 34.2151 12.15C33.9391 11.838 33.5671 11.682 33.0991 11.682C32.6311 11.682 32.2531 11.838 31.9651 12.15C31.6771 12.462 31.5331 12.888 31.5331 13.428V18.774C31.5331 19.314 31.6771 19.74 31.9651 20.052C32.2531 20.352 32.6311 20.502 33.0991 20.502C33.5671 20.502 33.9391 20.352 34.2151 20.052C34.5031 19.74 34.6471 19.314 34.6471 18.774ZM42.4406 13.752V12.114C42.4406 11.43 42.1406 11.088 41.5406 11.088C40.9286 11.088 40.6226 11.43 40.6226 12.114V13.752C40.6226 14.436 40.9286 14.778 41.5406 14.778C42.1406 14.778 42.4406 14.436 42.4406 13.752ZM44.1326 13.824C44.1326 14.604 43.8866 15.21 43.3946 15.642C42.9026 16.074 42.2846 16.29 41.5406 16.29C40.7966 16.29 40.1726 16.074 39.6686 15.642C39.1646 15.21 38.9126 14.604 38.9126 13.824V12.042C38.9126 11.262 39.1646 10.656 39.6686 10.224C40.1726 9.792 40.7966 9.576 41.5406 9.576C42.2846 9.576 42.9026 9.792 43.3946 10.224C43.8866 10.656 44.1326 11.262 44.1326 12.042V13.824ZM50.6126 20.088V18.432C50.6126 17.748 50.3066 17.406 49.6946 17.406C49.0826 17.406 48.7766 17.748 48.7766 18.432V20.088C48.7766 20.76 49.0826 21.096 49.6946 21.096C50.3066 21.096 50.6126 20.76 50.6126 20.088ZM52.3046 20.142C52.3046 20.922 52.0526 21.528 51.5486 21.96C51.0566 22.392 50.4386 22.608 49.6946 22.608C48.9506 22.608 48.3266 22.392 47.8226 21.96C47.3306 21.528 47.0846 20.922 47.0846 20.142V18.36C47.0846 17.58 47.3306 16.974 47.8226 16.542C48.3266 16.11 48.9506 15.894 49.6946 15.894C50.4386 15.894 51.0566 16.11 51.5486 16.542C52.0526 16.974 52.3046 17.58 52.3046 18.36V20.142ZM49.5686 9.684L43.5026 22.5H41.6666L47.7326 9.684H49.5686Z" fill="#E02E2B"/>
</svg>
